<mxfile host="Electron" modified="2023-08-24T08:10:27.213Z" agent="Mozilla/5.0 (X11; Linux x86_64) AppleWebKit/537.36 (KHTML, like Gecko) draw.io/21.6.8 Chrome/114.0.5735.289 Electron/25.5.0 Safari/537.36" etag="Ug-1GeLCf7jg5QyTSVIv" version="21.6.8" type="device">
  <diagram name="Page-1" id="q1A2OknivofPuD7sUU4y">
    <mxGraphModel dx="4694" dy="3264" grid="1" gridSize="10" guides="1" tooltips="1" connect="1" arrows="1" fold="1" page="1" pageScale="1" pageWidth="1169" pageHeight="827" math="0" shadow="0">
      <root>
        <mxCell id="0" />
        <mxCell id="1" parent="0" />
        <mxCell id="VVgYcif5jxNWV2IPBped-89" value="&lt;font style=&quot;font-size: 64px;&quot;&gt;DEVICE&lt;/font&gt;" style="rounded=0;whiteSpace=wrap;html=1;spacingBottom=950;fontSize=64;fontStyle=1;strokeWidth=5;fontFamily=IBM Plex Mono;fontSource=https%3A%2F%2Ffonts.googleapis.com%2Fcss%3Ffamily%3DIBM%2BPlex%2BMono;" parent="1" vertex="1">
          <mxGeometry x="1320" y="-800" width="3200" height="1120" as="geometry" />
        </mxCell>
        <mxCell id="VVgYcif5jxNWV2IPBped-22" value="&lt;span style=&quot;font-size: 44px;&quot;&gt;BLOCK 1&lt;/span&gt;" style="rounded=0;whiteSpace=wrap;html=1;fillColor=#fff2cc;strokeColor=#d6b656;spacingBottom=380;fontSize=44;fontFamily=IBM Plex Mono;fontSource=https%3A%2F%2Ffonts.googleapis.com%2Fcss%3Ffamily%3DIBM%2BPlex%2BMono;" parent="1" vertex="1">
          <mxGeometry x="1353" y="-650" width="1480" height="480" as="geometry" />
        </mxCell>
        <mxCell id="VVgYcif5jxNWV2IPBped-101" value="" style="shape=flexArrow;endArrow=classic;startArrow=classic;html=1;rounded=0;entryX=0.07;entryY=1;entryDx=0;entryDy=0;fillColor=#000000;exitX=0.019;exitY=-0.015;exitDx=0;exitDy=0;exitPerimeter=0;entryPerimeter=0;fontFamily=IBM Plex Mono;fontSource=https%3A%2F%2Ffonts.googleapis.com%2Fcss%3Ffamily%3DIBM%2BPlex%2BMono;" parent="1" edge="1">
          <mxGeometry width="100" height="100" relative="1" as="geometry">
            <mxPoint x="1912" y="-132" as="sourcePoint" />
            <mxPoint x="1912" y="-349" as="targetPoint" />
          </mxGeometry>
        </mxCell>
        <mxCell id="VVgYcif5jxNWV2IPBped-2" value="&lt;font style=&quot;font-size: 40px;&quot;&gt;THREAD 1&lt;/font&gt;" style="rounded=0;whiteSpace=wrap;html=1;verticalAlign=middle;labelPosition=center;verticalLabelPosition=middle;align=center;horizontal=1;spacingBottom=-125;fillColor=#dae8fc;strokeColor=#6c8ebf;fontSize=40;fontFamily=IBM Plex Mono;fontSource=https%3A%2F%2Ffonts.googleapis.com%2Fcss%3Ffamily%3DIBM%2BPlex%2BMono;" parent="1" vertex="1">
          <mxGeometry x="1382" y="-560" width="430" height="210" as="geometry" />
        </mxCell>
        <mxCell id="VVgYcif5jxNWV2IPBped-1" value="&lt;font style=&quot;font-size: 36px;&quot;&gt;REGISTERS&lt;/font&gt;" style="rounded=0;whiteSpace=wrap;html=1;fillColor=#e1d5e7;strokeColor=#9673a6;fontSize=36;fontFamily=IBM Plex Mono;fontSource=https%3A%2F%2Ffonts.googleapis.com%2Fcss%3Ffamily%3DIBM%2BPlex%2BMono;" parent="1" vertex="1">
          <mxGeometry x="1392" y="-550" width="200" height="120" as="geometry" />
        </mxCell>
        <mxCell id="VVgYcif5jxNWV2IPBped-41" value="LOCAL MEMORY" style="rounded=0;whiteSpace=wrap;html=1;fillColor=#e1d5e7;strokeColor=#9673a6;fontSize=36;fontFamily=IBM Plex Mono;fontSource=https%3A%2F%2Ffonts.googleapis.com%2Fcss%3Ffamily%3DIBM%2BPlex%2BMono;" parent="1" vertex="1">
          <mxGeometry x="1600" y="-550" width="200" height="120" as="geometry" />
        </mxCell>
        <mxCell id="VVgYcif5jxNWV2IPBped-45" value="" style="whiteSpace=wrap;html=1;aspect=fixed;labelBackgroundColor=#000000;textOpacity=0;fillColor=#000000;strokeWidth=0;fontFamily=IBM Plex Mono;fontSource=https%3A%2F%2Ffonts.googleapis.com%2Fcss%3Ffamily%3DIBM%2BPlex%2BMono;" parent="1" vertex="1">
          <mxGeometry x="2312" y="-460" width="10" height="10" as="geometry" />
        </mxCell>
        <mxCell id="VVgYcif5jxNWV2IPBped-48" value="" style="whiteSpace=wrap;html=1;aspect=fixed;labelBackgroundColor=#000000;textOpacity=0;fillColor=#000000;strokeWidth=0;fontFamily=IBM Plex Mono;fontSource=https%3A%2F%2Ffonts.googleapis.com%2Fcss%3Ffamily%3DIBM%2BPlex%2BMono;" parent="1" vertex="1">
          <mxGeometry x="2342" y="-460" width="10" height="10" as="geometry" />
        </mxCell>
        <mxCell id="VVgYcif5jxNWV2IPBped-54" value="" style="shape=flexArrow;endArrow=classic;startArrow=classic;html=1;rounded=0;entryX=0.5;entryY=1;entryDx=0;entryDy=0;fillColor=#000000;exitX=0.151;exitY=-0.002;exitDx=0;exitDy=0;exitPerimeter=0;fontFamily=IBM Plex Mono;fontSource=https%3A%2F%2Ffonts.googleapis.com%2Fcss%3Ffamily%3DIBM%2BPlex%2BMono;" parent="1" source="VVgYcif5jxNWV2IPBped-7" target="VVgYcif5jxNWV2IPBped-2" edge="1">
          <mxGeometry width="100" height="100" relative="1" as="geometry">
            <mxPoint x="1607" y="-290" as="sourcePoint" />
            <mxPoint x="1902" y="-370" as="targetPoint" />
          </mxGeometry>
        </mxCell>
        <mxCell id="VVgYcif5jxNWV2IPBped-55" value="" style="shape=flexArrow;endArrow=classic;startArrow=classic;html=1;rounded=0;entryX=0.5;entryY=1;entryDx=0;entryDy=0;fillColor=#000000;exitX=0.468;exitY=-0.002;exitDx=0;exitDy=0;exitPerimeter=0;width=7.3076923076923075;startSize=5.8500000000000005;fontFamily=IBM Plex Mono;fontSource=https%3A%2F%2Ffonts.googleapis.com%2Fcss%3Ffamily%3DIBM%2BPlex%2BMono;" parent="1" source="VVgYcif5jxNWV2IPBped-7" target="VVgYcif5jxNWV2IPBped-58" edge="1">
          <mxGeometry width="100" height="100" relative="1" as="geometry">
            <mxPoint x="2076.83" y="-290" as="sourcePoint" />
            <mxPoint x="2057" y="-350" as="targetPoint" />
          </mxGeometry>
        </mxCell>
        <mxCell id="VVgYcif5jxNWV2IPBped-58" value="&lt;font style=&quot;font-size: 40px;&quot;&gt;THREAD 2&lt;/font&gt;" style="rounded=0;whiteSpace=wrap;html=1;verticalAlign=middle;labelPosition=center;verticalLabelPosition=middle;align=center;horizontal=1;spacingBottom=-125;fillColor=#dae8fc;strokeColor=#6c8ebf;fontSize=40;fontFamily=IBM Plex Mono;fontSource=https%3A%2F%2Ffonts.googleapis.com%2Fcss%3Ffamily%3DIBM%2BPlex%2BMono;" parent="1" vertex="1">
          <mxGeometry x="1832" y="-560" width="430" height="210" as="geometry" />
        </mxCell>
        <mxCell id="VVgYcif5jxNWV2IPBped-59" value="REGISTERS" style="rounded=0;whiteSpace=wrap;html=1;fillColor=#e1d5e7;strokeColor=#9673a6;fontSize=36;fontFamily=IBM Plex Mono;fontSource=https%3A%2F%2Ffonts.googleapis.com%2Fcss%3Ffamily%3DIBM%2BPlex%2BMono;" parent="1" vertex="1">
          <mxGeometry x="1842" y="-550" width="200" height="120" as="geometry" />
        </mxCell>
        <mxCell id="VVgYcif5jxNWV2IPBped-60" value="LOCAL MEMORY" style="rounded=0;whiteSpace=wrap;html=1;fillColor=#e1d5e7;strokeColor=#9673a6;fontSize=36;fontFamily=IBM Plex Mono;fontSource=https%3A%2F%2Ffonts.googleapis.com%2Fcss%3Ffamily%3DIBM%2BPlex%2BMono;" parent="1" vertex="1">
          <mxGeometry x="2050" y="-550" width="200" height="120" as="geometry" />
        </mxCell>
        <mxCell id="VVgYcif5jxNWV2IPBped-61" value="" style="whiteSpace=wrap;html=1;aspect=fixed;labelBackgroundColor=#000000;textOpacity=0;fillColor=#000000;strokeWidth=0;fontFamily=IBM Plex Mono;fontSource=https%3A%2F%2Ffonts.googleapis.com%2Fcss%3Ffamily%3DIBM%2BPlex%2BMono;" parent="1" vertex="1">
          <mxGeometry x="2282" y="-460" width="10" height="10" as="geometry" />
        </mxCell>
        <mxCell id="VVgYcif5jxNWV2IPBped-62" value="THREAD N" style="rounded=0;whiteSpace=wrap;html=1;verticalAlign=middle;labelPosition=center;verticalLabelPosition=middle;align=center;horizontal=1;spacingBottom=-125;fillColor=#dae8fc;strokeColor=#6c8ebf;fontSize=40;fontFamily=IBM Plex Mono;fontSource=https%3A%2F%2Ffonts.googleapis.com%2Fcss%3Ffamily%3DIBM%2BPlex%2BMono;" parent="1" vertex="1">
          <mxGeometry x="2372" y="-560" width="430" height="210" as="geometry" />
        </mxCell>
        <mxCell id="VVgYcif5jxNWV2IPBped-63" value="&lt;font style=&quot;font-size: 36px;&quot;&gt;REGISTERS&lt;/font&gt;" style="rounded=0;whiteSpace=wrap;html=1;fillColor=#e1d5e7;strokeColor=#9673a6;fontSize=36;fontFamily=IBM Plex Mono;fontSource=https%3A%2F%2Ffonts.googleapis.com%2Fcss%3Ffamily%3DIBM%2BPlex%2BMono;" parent="1" vertex="1">
          <mxGeometry x="2382" y="-550" width="200" height="120" as="geometry" />
        </mxCell>
        <mxCell id="VVgYcif5jxNWV2IPBped-64" value="LOCAL MEMORY" style="rounded=0;whiteSpace=wrap;html=1;fillColor=#e1d5e7;strokeColor=#9673a6;fontSize=36;fontFamily=IBM Plex Mono;fontSource=https%3A%2F%2Ffonts.googleapis.com%2Fcss%3Ffamily%3DIBM%2BPlex%2BMono;" parent="1" vertex="1">
          <mxGeometry x="2590" y="-550" width="200" height="120" as="geometry" />
        </mxCell>
        <mxCell id="VVgYcif5jxNWV2IPBped-65" value="" style="shape=flexArrow;endArrow=classic;startArrow=classic;html=1;rounded=0;entryX=0.495;entryY=1.001;entryDx=0;entryDy=0;fillColor=#000000;exitX=0.847;exitY=-0.004;exitDx=0;exitDy=0;exitPerimeter=0;entryPerimeter=0;fontFamily=IBM Plex Mono;fontSource=https%3A%2F%2Ffonts.googleapis.com%2Fcss%3Ffamily%3DIBM%2BPlex%2BMono;" parent="1" source="VVgYcif5jxNWV2IPBped-7" target="VVgYcif5jxNWV2IPBped-62" edge="1">
          <mxGeometry width="100" height="100" relative="1" as="geometry">
            <mxPoint x="2590" y="-290" as="sourcePoint" />
            <mxPoint x="2590" y="-350" as="targetPoint" />
          </mxGeometry>
        </mxCell>
        <mxCell id="VVgYcif5jxNWV2IPBped-66" value="&lt;span style=&quot;font-size: 44px;&quot;&gt;BLOCK N&lt;/span&gt;" style="rounded=0;whiteSpace=wrap;html=1;fillColor=#fff2cc;strokeColor=#d6b656;spacingBottom=380;fontSize=44;fontFamily=IBM Plex Mono;fontSource=https%3A%2F%2Ffonts.googleapis.com%2Fcss%3Ffamily%3DIBM%2BPlex%2BMono;" parent="1" vertex="1">
          <mxGeometry x="3012" y="-650" width="1480" height="480" as="geometry" />
        </mxCell>
        <mxCell id="VVgYcif5jxNWV2IPBped-67" value="&lt;font style=&quot;font-size: 40px;&quot;&gt;THREAD 1&lt;/font&gt;" style="rounded=0;whiteSpace=wrap;html=1;verticalAlign=middle;labelPosition=center;verticalLabelPosition=middle;align=center;horizontal=1;spacingBottom=-125;fillColor=#dae8fc;strokeColor=#6c8ebf;fontSize=40;fontFamily=IBM Plex Mono;fontSource=https%3A%2F%2Ffonts.googleapis.com%2Fcss%3Ffamily%3DIBM%2BPlex%2BMono;" parent="1" vertex="1">
          <mxGeometry x="3041" y="-560" width="430" height="210" as="geometry" />
        </mxCell>
        <mxCell id="VVgYcif5jxNWV2IPBped-31" value="&lt;font style=&quot;font-size: 52px;&quot;&gt;L2 CACHE&lt;/font&gt;" style="rounded=0;whiteSpace=wrap;html=1;fillColor=#ffe6cc;strokeColor=#d79b00;fontSize=52;fontFamily=IBM Plex Mono;fontSource=https%3A%2F%2Ffonts.googleapis.com%2Fcss%3Ffamily%3DIBM%2BPlex%2BMono;" parent="1" vertex="1">
          <mxGeometry x="1352" y="-130" width="3140" height="180" as="geometry" />
        </mxCell>
        <mxCell id="VVgYcif5jxNWV2IPBped-106" value="" style="shape=flexArrow;endArrow=classic;startArrow=classic;html=1;rounded=0;entryX=0.07;entryY=1;entryDx=0;entryDy=0;fillColor=#000000;exitX=0.019;exitY=-0.003;exitDx=0;exitDy=0;exitPerimeter=0;entryPerimeter=0;fontFamily=IBM Plex Mono;fontSource=https%3A%2F%2Ffonts.googleapis.com%2Fcss%3Ffamily%3DIBM%2BPlex%2BMono;" parent="1" edge="1">
          <mxGeometry width="100" height="100" relative="1" as="geometry">
            <mxPoint x="3522" y="89" as="sourcePoint" />
            <mxPoint x="3522" y="-350" as="targetPoint" />
          </mxGeometry>
        </mxCell>
        <mxCell id="VVgYcif5jxNWV2IPBped-98" value="" style="shape=flexArrow;endArrow=classic;startArrow=classic;html=1;rounded=0;entryX=0.07;entryY=1;entryDx=0;entryDy=0;fillColor=#000000;exitX=0.019;exitY=-0.003;exitDx=0;exitDy=0;exitPerimeter=0;entryPerimeter=0;fontFamily=IBM Plex Mono;fontSource=https%3A%2F%2Ffonts.googleapis.com%2Fcss%3Ffamily%3DIBM%2BPlex%2BMono;" parent="1" edge="1">
          <mxGeometry width="100" height="100" relative="1" as="geometry">
            <mxPoint x="2402" y="89" as="sourcePoint" />
            <mxPoint x="2402" y="-350" as="targetPoint" />
          </mxGeometry>
        </mxCell>
        <mxCell id="VVgYcif5jxNWV2IPBped-100" value="" style="shape=flexArrow;endArrow=classic;startArrow=classic;html=1;rounded=0;entryX=0.07;entryY=1;entryDx=0;entryDy=0;fillColor=#000000;exitX=0.019;exitY=-0.003;exitDx=0;exitDy=0;exitPerimeter=0;entryPerimeter=0;fontFamily=IBM Plex Mono;fontSource=https%3A%2F%2Ffonts.googleapis.com%2Fcss%3Ffamily%3DIBM%2BPlex%2BMono;" parent="1" edge="1">
          <mxGeometry width="100" height="100" relative="1" as="geometry">
            <mxPoint x="1862" y="90" as="sourcePoint" />
            <mxPoint x="1862" y="-349" as="targetPoint" />
          </mxGeometry>
        </mxCell>
        <mxCell id="VVgYcif5jxNWV2IPBped-7" value="SHARED MEMORY / L1 CACHE" style="rounded=0;whiteSpace=wrap;html=1;fillColor=#d5e8d4;strokeColor=#82b366;fontSize=44;fontFamily=IBM Plex Mono;fontSource=https%3A%2F%2Ffonts.googleapis.com%2Fcss%3Ffamily%3DIBM%2BPlex%2BMono;" parent="1" vertex="1">
          <mxGeometry x="1382" y="-290" width="1420" height="90" as="geometry" />
        </mxCell>
        <mxCell id="VVgYcif5jxNWV2IPBped-68" value="&lt;font style=&quot;font-size: 36px;&quot;&gt;REGISTERS&lt;/font&gt;" style="rounded=0;whiteSpace=wrap;html=1;fillColor=#e1d5e7;strokeColor=#9673a6;fontSize=36;fontFamily=IBM Plex Mono;fontSource=https%3A%2F%2Ffonts.googleapis.com%2Fcss%3Ffamily%3DIBM%2BPlex%2BMono;" parent="1" vertex="1">
          <mxGeometry x="3051" y="-550" width="200" height="120" as="geometry" />
        </mxCell>
        <mxCell id="VVgYcif5jxNWV2IPBped-70" value="&lt;span style=&quot;font-size: 36px;&quot;&gt;LOCAL MEMORY&lt;/span&gt;" style="rounded=0;whiteSpace=wrap;html=1;fillColor=#e1d5e7;strokeColor=#9673a6;fontSize=36;fontFamily=IBM Plex Mono;fontSource=https%3A%2F%2Ffonts.googleapis.com%2Fcss%3Ffamily%3DIBM%2BPlex%2BMono;" parent="1" vertex="1">
          <mxGeometry x="3259" y="-550" width="200" height="120" as="geometry" />
        </mxCell>
        <mxCell id="VVgYcif5jxNWV2IPBped-71" value="" style="whiteSpace=wrap;html=1;aspect=fixed;labelBackgroundColor=#000000;textOpacity=0;fillColor=#000000;strokeWidth=0;fontFamily=IBM Plex Mono;fontSource=https%3A%2F%2Ffonts.googleapis.com%2Fcss%3Ffamily%3DIBM%2BPlex%2BMono;" parent="1" vertex="1">
          <mxGeometry x="3971" y="-460" width="10" height="10" as="geometry" />
        </mxCell>
        <mxCell id="VVgYcif5jxNWV2IPBped-72" value="" style="whiteSpace=wrap;html=1;aspect=fixed;labelBackgroundColor=#000000;textOpacity=0;fillColor=#000000;strokeWidth=0;fontFamily=IBM Plex Mono;fontSource=https%3A%2F%2Ffonts.googleapis.com%2Fcss%3Ffamily%3DIBM%2BPlex%2BMono;" parent="1" vertex="1">
          <mxGeometry x="4001" y="-460" width="10" height="10" as="geometry" />
        </mxCell>
        <mxCell id="VVgYcif5jxNWV2IPBped-73" value="" style="shape=flexArrow;endArrow=classic;startArrow=classic;html=1;rounded=0;entryX=0.5;entryY=1;entryDx=0;entryDy=0;fillColor=#000000;exitX=0.151;exitY=-0.002;exitDx=0;exitDy=0;exitPerimeter=0;fontFamily=IBM Plex Mono;fontSource=https%3A%2F%2Ffonts.googleapis.com%2Fcss%3Ffamily%3DIBM%2BPlex%2BMono;" parent="1" source="VVgYcif5jxNWV2IPBped-69" target="VVgYcif5jxNWV2IPBped-67" edge="1">
          <mxGeometry width="100" height="100" relative="1" as="geometry">
            <mxPoint x="3266" y="-290" as="sourcePoint" />
            <mxPoint x="3561" y="-370" as="targetPoint" />
          </mxGeometry>
        </mxCell>
        <mxCell id="VVgYcif5jxNWV2IPBped-74" value="" style="shape=flexArrow;endArrow=classic;startArrow=classic;html=1;rounded=0;entryX=0.5;entryY=1;entryDx=0;entryDy=0;fillColor=#000000;exitX=0.468;exitY=-0.002;exitDx=0;exitDy=0;exitPerimeter=0;width=7.3076923076923075;startSize=5.8500000000000005;fontFamily=IBM Plex Mono;fontSource=https%3A%2F%2Ffonts.googleapis.com%2Fcss%3Ffamily%3DIBM%2BPlex%2BMono;" parent="1" source="VVgYcif5jxNWV2IPBped-69" target="VVgYcif5jxNWV2IPBped-75" edge="1">
          <mxGeometry width="100" height="100" relative="1" as="geometry">
            <mxPoint x="3735.83" y="-290" as="sourcePoint" />
            <mxPoint x="3716" y="-350" as="targetPoint" />
          </mxGeometry>
        </mxCell>
        <mxCell id="VVgYcif5jxNWV2IPBped-75" value="&lt;font style=&quot;font-size: 40px;&quot;&gt;THREAD 2&lt;/font&gt;" style="rounded=0;whiteSpace=wrap;html=1;verticalAlign=middle;labelPosition=center;verticalLabelPosition=middle;align=center;horizontal=1;spacingBottom=-125;fillColor=#dae8fc;strokeColor=#6c8ebf;fontSize=40;fontFamily=IBM Plex Mono;fontSource=https%3A%2F%2Ffonts.googleapis.com%2Fcss%3Ffamily%3DIBM%2BPlex%2BMono;" parent="1" vertex="1">
          <mxGeometry x="3491" y="-560" width="430" height="210" as="geometry" />
        </mxCell>
        <mxCell id="VVgYcif5jxNWV2IPBped-76" value="&lt;font style=&quot;font-size: 36px;&quot;&gt;REGISTERS&lt;/font&gt;" style="rounded=0;whiteSpace=wrap;html=1;fillColor=#e1d5e7;strokeColor=#9673a6;fontSize=36;fontFamily=IBM Plex Mono;fontSource=https%3A%2F%2Ffonts.googleapis.com%2Fcss%3Ffamily%3DIBM%2BPlex%2BMono;" parent="1" vertex="1">
          <mxGeometry x="3501" y="-550" width="200" height="120" as="geometry" />
        </mxCell>
        <mxCell id="VVgYcif5jxNWV2IPBped-77" value="&lt;span style=&quot;font-size: 36px;&quot;&gt;LOCAL MEMORY&lt;/span&gt;" style="rounded=0;whiteSpace=wrap;html=1;fillColor=#e1d5e7;strokeColor=#9673a6;fontSize=36;fontFamily=IBM Plex Mono;fontSource=https%3A%2F%2Ffonts.googleapis.com%2Fcss%3Ffamily%3DIBM%2BPlex%2BMono;" parent="1" vertex="1">
          <mxGeometry x="3709" y="-550" width="200" height="120" as="geometry" />
        </mxCell>
        <mxCell id="VVgYcif5jxNWV2IPBped-78" value="" style="whiteSpace=wrap;html=1;aspect=fixed;labelBackgroundColor=#000000;textOpacity=0;fillColor=#000000;strokeWidth=0;fontFamily=IBM Plex Mono;fontSource=https%3A%2F%2Ffonts.googleapis.com%2Fcss%3Ffamily%3DIBM%2BPlex%2BMono;" parent="1" vertex="1">
          <mxGeometry x="3941" y="-460" width="10" height="10" as="geometry" />
        </mxCell>
        <mxCell id="VVgYcif5jxNWV2IPBped-79" value="THREAD N" style="rounded=0;whiteSpace=wrap;html=1;verticalAlign=middle;labelPosition=center;verticalLabelPosition=middle;align=center;horizontal=1;spacingBottom=-125;fillColor=#dae8fc;strokeColor=#6c8ebf;fontSize=40;fontFamily=IBM Plex Mono;fontSource=https%3A%2F%2Ffonts.googleapis.com%2Fcss%3Ffamily%3DIBM%2BPlex%2BMono;" parent="1" vertex="1">
          <mxGeometry x="4031" y="-560" width="430" height="210" as="geometry" />
        </mxCell>
        <mxCell id="VVgYcif5jxNWV2IPBped-80" value="&lt;font style=&quot;font-size: 36px;&quot;&gt;REGISTERS&lt;/font&gt;" style="rounded=0;whiteSpace=wrap;html=1;fillColor=#e1d5e7;strokeColor=#9673a6;fontSize=36;fontFamily=IBM Plex Mono;fontSource=https%3A%2F%2Ffonts.googleapis.com%2Fcss%3Ffamily%3DIBM%2BPlex%2BMono;" parent="1" vertex="1">
          <mxGeometry x="4041" y="-550" width="200" height="120" as="geometry" />
        </mxCell>
        <mxCell id="VVgYcif5jxNWV2IPBped-81" value="&lt;span style=&quot;font-size: 36px;&quot;&gt;LOCAL MEMORY&lt;/span&gt;" style="rounded=0;whiteSpace=wrap;html=1;fillColor=#e1d5e7;strokeColor=#9673a6;fontSize=36;fontFamily=IBM Plex Mono;fontSource=https%3A%2F%2Ffonts.googleapis.com%2Fcss%3Ffamily%3DIBM%2BPlex%2BMono;" parent="1" vertex="1">
          <mxGeometry x="4249" y="-550" width="200" height="120" as="geometry" />
        </mxCell>
        <mxCell id="VVgYcif5jxNWV2IPBped-82" value="" style="shape=flexArrow;endArrow=classic;startArrow=classic;html=1;rounded=0;entryX=0.495;entryY=1.001;entryDx=0;entryDy=0;fillColor=#000000;exitX=0.847;exitY=-0.004;exitDx=0;exitDy=0;exitPerimeter=0;entryPerimeter=0;fontFamily=IBM Plex Mono;fontSource=https%3A%2F%2Ffonts.googleapis.com%2Fcss%3Ffamily%3DIBM%2BPlex%2BMono;" parent="1" source="VVgYcif5jxNWV2IPBped-69" target="VVgYcif5jxNWV2IPBped-79" edge="1">
          <mxGeometry width="100" height="100" relative="1" as="geometry">
            <mxPoint x="4249" y="-290" as="sourcePoint" />
            <mxPoint x="4249" y="-350" as="targetPoint" />
          </mxGeometry>
        </mxCell>
        <mxCell id="VVgYcif5jxNWV2IPBped-83" value="&lt;font style=&quot;font-size: 52px;&quot;&gt;GLOBAL MEMORY (VRAM, HBM)&lt;/font&gt;" style="rounded=0;whiteSpace=wrap;html=1;fillColor=#ffe6cc;strokeColor=#d79b00;fontSize=52;fontFamily=IBM Plex Mono;fontSource=https%3A%2F%2Ffonts.googleapis.com%2Fcss%3Ffamily%3DIBM%2BPlex%2BMono;" parent="1" vertex="1">
          <mxGeometry x="1352" y="90" width="3140" height="200" as="geometry" />
        </mxCell>
        <mxCell id="VVgYcif5jxNWV2IPBped-85" value="" style="whiteSpace=wrap;html=1;aspect=fixed;labelBackgroundColor=#000000;textOpacity=0;fillColor=#000000;strokeWidth=0;fontFamily=IBM Plex Mono;fontSource=https%3A%2F%2Ffonts.googleapis.com%2Fcss%3Ffamily%3DIBM%2BPlex%2BMono;" parent="1" vertex="1">
          <mxGeometry x="2915" y="-415" width="10" height="10" as="geometry" />
        </mxCell>
        <mxCell id="VVgYcif5jxNWV2IPBped-86" value="" style="whiteSpace=wrap;html=1;aspect=fixed;labelBackgroundColor=#000000;textOpacity=0;fillColor=#000000;strokeWidth=0;fontFamily=IBM Plex Mono;fontSource=https%3A%2F%2Ffonts.googleapis.com%2Fcss%3Ffamily%3DIBM%2BPlex%2BMono;" parent="1" vertex="1">
          <mxGeometry x="2945" y="-415" width="10" height="10" as="geometry" />
        </mxCell>
        <mxCell id="VVgYcif5jxNWV2IPBped-87" value="" style="whiteSpace=wrap;html=1;aspect=fixed;labelBackgroundColor=#000000;textOpacity=0;fillColor=#000000;strokeWidth=0;fontFamily=IBM Plex Mono;fontSource=https%3A%2F%2Ffonts.googleapis.com%2Fcss%3Ffamily%3DIBM%2BPlex%2BMono;" parent="1" vertex="1">
          <mxGeometry x="2885" y="-415" width="10" height="10" as="geometry" />
        </mxCell>
        <mxCell id="VVgYcif5jxNWV2IPBped-93" value="&lt;font style=&quot;font-size: 64px;&quot;&gt;HOST&lt;/font&gt;" style="rounded=0;whiteSpace=wrap;html=1;spacingBottom=-225;fontStyle=1;fontSize=64;strokeWidth=5;fontFamily=IBM Plex Mono;fontSource=https%3A%2F%2Ffonts.googleapis.com%2Fcss%3Ffamily%3DIBM%2BPlex%2BMono;" parent="1" vertex="1">
          <mxGeometry x="1320" y="420" width="3200" height="370" as="geometry" />
        </mxCell>
        <mxCell id="VVgYcif5jxNWV2IPBped-94" value="&lt;font style=&quot;font-size: 52px;&quot;&gt;HOST MEMORY (DRAM, HBM)&lt;/font&gt;" style="rounded=0;whiteSpace=wrap;html=1;fillColor=#f8cecc;strokeColor=#b85450;fontSize=52;fontFamily=IBM Plex Mono;fontSource=https%3A%2F%2Ffonts.googleapis.com%2Fcss%3Ffamily%3DIBM%2BPlex%2BMono;" parent="1" vertex="1">
          <mxGeometry x="1356" y="450" width="3140" height="200" as="geometry" />
        </mxCell>
        <mxCell id="VVgYcif5jxNWV2IPBped-95" value="" style="shape=flexArrow;endArrow=classic;startArrow=classic;html=1;rounded=0;entryX=0.07;entryY=1;entryDx=0;entryDy=0;fillColor=#000000;exitX=0.019;exitY=-0.003;exitDx=0;exitDy=0;exitPerimeter=0;entryPerimeter=0;fontFamily=IBM Plex Mono;fontSource=https%3A%2F%2Ffonts.googleapis.com%2Fcss%3Ffamily%3DIBM%2BPlex%2BMono;" parent="1" source="VVgYcif5jxNWV2IPBped-83" target="VVgYcif5jxNWV2IPBped-2" edge="1">
          <mxGeometry width="100" height="100" relative="1" as="geometry">
            <mxPoint x="1606" y="-280" as="sourcePoint" />
            <mxPoint x="1607" y="-340" as="targetPoint" />
          </mxGeometry>
        </mxCell>
        <mxCell id="VVgYcif5jxNWV2IPBped-97" value="" style="shape=flexArrow;endArrow=classic;startArrow=classic;html=1;rounded=0;entryX=0.07;entryY=1;entryDx=0;entryDy=0;fillColor=#000000;exitX=0.019;exitY=-0.015;exitDx=0;exitDy=0;exitPerimeter=0;entryPerimeter=0;fontFamily=IBM Plex Mono;fontSource=https%3A%2F%2Ffonts.googleapis.com%2Fcss%3Ffamily%3DIBM%2BPlex%2BMono;" parent="1" edge="1">
          <mxGeometry width="100" height="100" relative="1" as="geometry">
            <mxPoint x="1462" y="-133" as="sourcePoint" />
            <mxPoint x="1462" y="-350" as="targetPoint" />
          </mxGeometry>
        </mxCell>
        <mxCell id="VVgYcif5jxNWV2IPBped-99" value="" style="shape=flexArrow;endArrow=classic;startArrow=classic;html=1;rounded=0;entryX=0.07;entryY=1;entryDx=0;entryDy=0;fillColor=#000000;exitX=0.019;exitY=-0.015;exitDx=0;exitDy=0;exitPerimeter=0;entryPerimeter=0;fontFamily=IBM Plex Mono;fontSource=https%3A%2F%2Ffonts.googleapis.com%2Fcss%3Ffamily%3DIBM%2BPlex%2BMono;" parent="1" edge="1">
          <mxGeometry width="100" height="100" relative="1" as="geometry">
            <mxPoint x="2452" y="-133" as="sourcePoint" />
            <mxPoint x="2452" y="-350" as="targetPoint" />
          </mxGeometry>
        </mxCell>
        <mxCell id="VVgYcif5jxNWV2IPBped-105" value="" style="shape=flexArrow;endArrow=classic;startArrow=classic;html=1;rounded=0;entryX=0.07;entryY=1;entryDx=0;entryDy=0;fillColor=#000000;exitX=0.019;exitY=-0.003;exitDx=0;exitDy=0;exitPerimeter=0;entryPerimeter=0;fontFamily=IBM Plex Mono;fontSource=https%3A%2F%2Ffonts.googleapis.com%2Fcss%3Ffamily%3DIBM%2BPlex%2BMono;" parent="1" edge="1">
          <mxGeometry width="100" height="100" relative="1" as="geometry">
            <mxPoint x="4062" y="89" as="sourcePoint" />
            <mxPoint x="4062" y="-350" as="targetPoint" />
          </mxGeometry>
        </mxCell>
        <mxCell id="VVgYcif5jxNWV2IPBped-107" value="" style="shape=flexArrow;endArrow=classic;startArrow=classic;html=1;rounded=0;entryX=0.07;entryY=1;entryDx=0;entryDy=0;fillColor=#000000;exitX=0.019;exitY=-0.015;exitDx=0;exitDy=0;exitPerimeter=0;entryPerimeter=0;fontFamily=IBM Plex Mono;fontSource=https%3A%2F%2Ffonts.googleapis.com%2Fcss%3Ffamily%3DIBM%2BPlex%2BMono;" parent="1" edge="1">
          <mxGeometry width="100" height="100" relative="1" as="geometry">
            <mxPoint x="3572" y="-133" as="sourcePoint" />
            <mxPoint x="3572" y="-350" as="targetPoint" />
          </mxGeometry>
        </mxCell>
        <mxCell id="VVgYcif5jxNWV2IPBped-69" value="SHARED MEMORY / L1 CACHE" style="rounded=0;whiteSpace=wrap;html=1;fillColor=#d5e8d4;strokeColor=#82b366;fontSize=44;fontFamily=IBM Plex Mono;fontSource=https%3A%2F%2Ffonts.googleapis.com%2Fcss%3Ffamily%3DIBM%2BPlex%2BMono;" parent="1" vertex="1">
          <mxGeometry x="3041" y="-290" width="1420" height="90" as="geometry" />
        </mxCell>
        <mxCell id="VVgYcif5jxNWV2IPBped-102" value="" style="shape=flexArrow;endArrow=classic;startArrow=classic;html=1;rounded=0;entryX=0.07;entryY=1;entryDx=0;entryDy=0;fillColor=#000000;exitX=0.019;exitY=-0.015;exitDx=0;exitDy=0;exitPerimeter=0;entryPerimeter=0;fontFamily=IBM Plex Mono;fontSource=https%3A%2F%2Ffonts.googleapis.com%2Fcss%3Ffamily%3DIBM%2BPlex%2BMono;" parent="1" edge="1">
          <mxGeometry width="100" height="100" relative="1" as="geometry">
            <mxPoint x="3071.29" y="-133" as="sourcePoint" />
            <mxPoint x="3071.29" y="-350" as="targetPoint" />
          </mxGeometry>
        </mxCell>
        <mxCell id="VVgYcif5jxNWV2IPBped-104" value="" style="shape=flexArrow;endArrow=classic;startArrow=classic;html=1;rounded=0;entryX=0.07;entryY=1;entryDx=0;entryDy=0;fillColor=#000000;exitX=0.019;exitY=-0.015;exitDx=0;exitDy=0;exitPerimeter=0;entryPerimeter=0;fontFamily=IBM Plex Mono;fontSource=https%3A%2F%2Ffonts.googleapis.com%2Fcss%3Ffamily%3DIBM%2BPlex%2BMono;" parent="1" edge="1">
          <mxGeometry width="100" height="100" relative="1" as="geometry">
            <mxPoint x="4112" y="-133" as="sourcePoint" />
            <mxPoint x="4112" y="-350" as="targetPoint" />
          </mxGeometry>
        </mxCell>
        <mxCell id="VVgYcif5jxNWV2IPBped-109" value="" style="rounded=0;whiteSpace=wrap;html=1;fillColor=#000000;fontFamily=IBM Plex Mono;fontSource=https%3A%2F%2Ffonts.googleapis.com%2Fcss%3Ffamily%3DIBM%2BPlex%2BMono;" parent="1" vertex="1">
          <mxGeometry x="3067" y="-290" width="10" height="90" as="geometry" />
        </mxCell>
        <mxCell id="VVgYcif5jxNWV2IPBped-110" value="" style="shape=flexArrow;endArrow=classic;startArrow=classic;html=1;rounded=0;fillColor=#000000;endSize=8;startSize=8;width=10;strokeWidth=10;fontFamily=IBM Plex Mono;fontSource=https%3A%2F%2Ffonts.googleapis.com%2Fcss%3Ffamily%3DIBM%2BPlex%2BMono;exitX=0.499;exitY=0.001;exitDx=0;exitDy=0;exitPerimeter=0;entryX=0.5;entryY=1;entryDx=0;entryDy=0;" parent="1" source="VVgYcif5jxNWV2IPBped-94" edge="1" target="VVgYcif5jxNWV2IPBped-83">
          <mxGeometry width="100" height="100" relative="1" as="geometry">
            <mxPoint x="2919.4100000000003" y="445" as="sourcePoint" />
            <mxPoint x="2919.57" y="300" as="targetPoint" />
          </mxGeometry>
        </mxCell>
        <mxCell id="VVgYcif5jxNWV2IPBped-112" value="" style="shape=flexArrow;endArrow=classic;startArrow=classic;html=1;rounded=0;entryX=0.5;entryY=1;entryDx=0;entryDy=0;fillColor=#000000;exitX=0.151;exitY=-0.002;exitDx=0;exitDy=0;exitPerimeter=0;strokeWidth=4;endSize=4;startSize=4;fontFamily=IBM Plex Mono;fontSource=https%3A%2F%2Ffonts.googleapis.com%2Fcss%3Ffamily%3DIBM%2BPlex%2BMono;" parent="1" edge="1">
          <mxGeometry width="100" height="100" relative="1" as="geometry">
            <mxPoint x="2919.52" y="115" as="sourcePoint" />
            <mxPoint x="2919.52" y="25" as="targetPoint" />
          </mxGeometry>
        </mxCell>
        <mxCell id="VVgYcif5jxNWV2IPBped-103" value="" style="shape=flexArrow;endArrow=classic;startArrow=classic;html=1;rounded=0;entryX=0.07;entryY=1;entryDx=0;entryDy=0;fillColor=#000000;exitX=0.019;exitY=-0.003;exitDx=0;exitDy=0;exitPerimeter=0;entryPerimeter=0;fontFamily=IBM Plex Mono;fontSource=https%3A%2F%2Ffonts.googleapis.com%2Fcss%3Ffamily%3DIBM%2BPlex%2BMono;" parent="1" edge="1">
          <mxGeometry width="100" height="100" relative="1" as="geometry">
            <mxPoint x="3120" y="89" as="sourcePoint" />
            <mxPoint x="3120" y="-350" as="targetPoint" />
          </mxGeometry>
        </mxCell>
      </root>
    </mxGraphModel>
  </diagram>
</mxfile>
